<svg xmlns="http://www.w3.org/2000/svg" version="1.1" xmlns:xlink="http://www.w3.org/1999/xlink" xmlns:svgjs="http://svgjs.dev/svgjs" width="1440" height="560" preserveAspectRatio="none" viewBox="0 0 1440 560"><g mask="url(&quot;#SvgjsMask1002&quot;)" fill="none"><rect width="1440" height="560" x="0" y="0" fill="url(&quot;#SvgjsLinearGradient1003&quot;)"></rect><path d="M600.64 638.23C741.56 619.22 799.01 306.04 1052.53 292.83 1306.05 279.62 1387.69 176.19 1504.42 175.23" stroke="rgba(51,121,194,0.58)" stroke-width="2"></path><path d="M923.56 578.32C1034.02 506.49 977.67 114.68 1170.21 112.55 1362.76 110.42 1525.22 357.39 1663.52 364.55" stroke="rgba(51,121,194,0.58)" stroke-width="2"></path><path d="M847.73 599.61C991.79 544.78 1018.74 114.89 1220.8 108.71 1422.87 102.53 1490.51 283.34 1593.88 287.91" stroke="rgba(51,121,194,0.58)" stroke-width="2"></path><path d="M475.84 580.29C623.75 509.98 556.9 35.82 836.59 33.48 1116.28 31.14 1366.13 292.61 1558.09 296.68" stroke="rgba(51,121,194,0.58)" stroke-width="2"></path><path d="M575.33 586.1C707.8 576.83 803.65 321.04 1035.5 320.82 1267.35 320.6 1374.59 470.1 1495.67 472.02" stroke="rgba(51,121,194,0.58)" stroke-width="2"></path></g><defs><mask id="SvgjsMask1002"><rect width="1440" height="560" fill="#ffffff"></rect></mask><linearGradient x1="15.28%" y1="-39.29%" x2="84.72%" y2="139.29%" gradientUnits="userSpaceOnUse" id="SvgjsLinearGradient1003"><stop stop-color="#0e2a47" offset="0"></stop><stop stop-color="#00459e" offset="1"></stop></linearGradient></defs></svg>