<?xml version="1.0" encoding="UTF-8"?> <svg xmlns="http://www.w3.org/2000/svg" xmlns:xlink="http://www.w3.org/1999/xlink" version="1.1" id="Layer_1" x="0px" y="0px" viewBox="0 0 356.7 356.7" style="enable-background:new 0 0 356.7 356.7;" xml:space="preserve"> <style type="text/css"> .st0{fill:#FFFFFF;stroke:#FFFFFF;stroke-width:2;stroke-miterlimit:10;} .st1{fill:#EE8A34;} .st2{fill:#00A1DF;} .st3{opacity:0.8;fill:#0071BC;enable-background:new ;} .st4{fill:none;} .st5{fill:#FFFFFF;stroke:#FFFFFF;stroke-miterlimit:10;} .st6{fill:#0071BC;} .st7{fill:none;stroke:#0071BC;stroke-miterlimit:10;} .st8{fill:#FFFFFF;} .st9{fill:#00A1DF;stroke:#00A1DF;stroke-miterlimit:10;} .st10{fill:none;stroke:#FFFFFF;stroke-miterlimit:10;} .st11{display:none;} </style> <circle class="st0" cx="178.3" cy="178.3" r="177.3"></circle> <g> <g> <path class="st1" d="M264.9,275.9l-32-26.2h-87.3c-7.9,0-14.3-6.4-14.3-14.3V151c0-7.9,6.4-14.3,14.3-14.3h122.2 c7.9,0,14.3,6.4,14.3,14.3v84.4c0,7.9-6.4,14.3-14.3,14.3h-2.9V275.9z M145.7,143.1c-4.3,0-7.7,3.5-7.7,7.7v84.4 c0,4.3,3.5,7.7,7.7,7.7h89.6l23,18.9v-18.9h9.5c4.3,0,7.7-3.5,7.7-7.7v-84.4c0-4.3-3.5-7.7-7.7-7.7L145.7,143.1L145.7,143.1z"></path> </g> <g> <path class="st1" d="M89.7,222v-23.6h-0.9c-7.9,0-14.3-6.4-14.3-14.3v-71.8c0-7.9,6.4-14.3,14.3-14.3h105.1 c7.9,0,14.3,6.4,14.3,14.3v27.5h-6.6v-27.5c0-4.3-3.5-7.7-7.7-7.7H88.8c-4.3,0-7.7,3.5-7.7,7.7v71.8c0,4.3,3.5,7.7,7.7,7.7h7.5 V208l19.8-16.2h18.5v6.6h-16.2L89.7,222z"></path> </g> <g> <rect x="158.9" y="163.3" class="st1" width="92.8" height="6.6"></rect> </g> <g> <rect x="158.9" y="181.4" class="st1" width="92.8" height="6.6"></rect> </g> <g> <rect x="158.9" y="199.4" class="st1" width="92.8" height="6.6"></rect> </g> <g> <rect x="158.9" y="217.5" class="st1" width="69.6" height="6.6"></rect> </g> </g> <g id="Layer_4"> <g> <g> <rect x="4728.4" y="-1134.1" class="st2" width="329" height="207"></rect> <rect x="4886.8" y="-1137.6" transform="matrix(0.7071 -0.7071 0.7071 0.7071 2232.8708 3129.1792)" class="st2" width="13.7" height="13.7"></rect> <text transform="matrix(1 0 0 1 4826.9219 -1102.6318)" class="st8" style="font-family:'ArialMT'; font-size:14px;">Marine Protection</text> <text transform="matrix(1 0 0 1 4810.416 -1071.6318)" style="fill:#005D9C; font-family:'ArialMT'; font-size:14px;">Local Food Production</text> <text transform="matrix(1 0 0 1 4766.3652 -1040.6318)" class="st8" style="font-family:'ArialMT'; font-size:14px;">Protection of Endangered Species</text> <text transform="matrix(1 0 0 1 4781.793 -1009.6321)" class="st8" style="font-family:'ArialMT'; font-size:14px;">Waste &amp; Energy Management</text> <text transform="matrix(1 0 0 1 4747.6689 -978.6321)" class="st8" style="font-family:'ArialMT'; font-size:14px;">Forests, Rivers &amp; Mangroves Protection</text> <text transform="matrix(1 0 0 1 4843.7847 -947.6321)" class="st8" style="font-family:'ArialMT'; font-size:14px;">Micro Credits</text> </g> </g> <g> <text transform="matrix(1 0 0 1 4819.7729 -1160.0054)" style="fill:#005D9C; font-family:'ArialMT'; font-size:14px;">ISSUES OF CONCERN</text> </g> <g> <g> <rect x="3731.9" y="-1107.5" class="st2" width="329" height="207"></rect> <rect x="3890.4" y="-1111" transform="matrix(0.7071 -0.7071 0.7071 0.7071 1922.199 2432.3464)" class="st2" width="13.7" height="13.7"></rect> <text transform="matrix(1 0 0 1 3830.4048 -1076.0288)" class="st8" style="font-family:'ArialMT'; font-size:14px;">Marine Protection</text> <text transform="matrix(1 0 0 1 3813.8989 -1045.0288)" style="fill:#005D9C; font-family:'ArialMT'; font-size:14px;">Local Food Production</text> <text transform="matrix(1 0 0 1 3769.8481 -1014.0288)" class="st8" style="font-family:'ArialMT'; font-size:14px;">Protection of Endangered Species</text> <text transform="matrix(1 0 0 1 3785.2759 -983.0288)" class="st8" style="font-family:'ArialMT'; font-size:14px;">Waste &amp; Energy Management</text> <text transform="matrix(1 0 0 1 3751.1519 -952.0288)" class="st8" style="font-family:'ArialMT'; font-size:14px;">Forests, Rivers &amp; Mangroves Protection</text> <text transform="matrix(1 0 0 1 3847.2676 -921.0288)" class="st8" style="font-family:'ArialMT'; font-size:14px;">Micro Credits</text> </g> </g> <g> <text transform="matrix(1 0 0 1 3823.2559 -1144.2607)" style="fill:#005D9C; font-family:'ArialMT'; font-size:14px;">ISSUES OF CONCERN</text> </g> <rect x="-6382.2" y="-211.9" class="st3" width="297.5" height="298"></rect> <rect x="-6358.1" y="-22.6" class="st4" width="272.9" height="85"></rect> <text transform="matrix(1 0 0 1 -6358.0942 -4.8008)" class="st8" style="font-family:'ArialMT'; font-size:24px;">THE Aeolian </text> <text transform="matrix(1 0 0 1 -6358.0942 17.1992)" class="st8" style="font-family:'ArialMT'; font-size:24px;">Islands </text> <text transform="matrix(1 0 0 1 -6358.0942 39.1992)" class="st8" style="font-family:'ArialMT'; font-size:24px;">PRESERVATION </text> <text transform="matrix(1 0 0 1 -6358.0942 61.1992)" class="st8" style="font-family:'ArialMT'; font-size:24px;">FUND</text> <g> <rect x="-6155.2" y="-724.9" class="st5" width="155" height="29.1"></rect> <text transform="matrix(1 0 0 1 -6142.7163 -706.4175)" class="st2" style="font-family:'ArialMT'; font-size:12px; letter-spacing:3;">FIND OUT MORE</text> </g> <path class="st6" d="M-5475.5-1151.5c-0.7,0.3-1.5,0.5-2.3,0.6c0.8-0.5,1.5-1.3,1.8-2.2c-0.8,0.5-1.6,0.8-2.6,1 c-0.7-0.8-1.8-1.3-2.9-1.3c-2.2,0-4,1.8-4,4c0,0.3,0,0.6,0.1,0.9c-3.4-0.2-6.3-1.8-8.3-4.2c-0.3,0.6-0.5,1.3-0.5,2 c0,1.4,0.7,2.6,1.8,3.4c-0.7,0-1.3-0.2-1.8-0.5c0,0,0,0,0,0.1c0,2,1.4,3.6,3.2,4c-0.3,0.1-0.7,0.1-1.1,0.1c-0.3,0-0.5,0-0.8-0.1 c0.5,1.6,2,2.8,3.8,2.8c-1.4,1.1-3.1,1.7-5,1.7c-0.3,0-0.6,0-1-0.1c1.8,1.1,3.9,1.8,6.2,1.8c7.4,0,11.5-6.2,11.5-11.5 c0-0.2,0-0.3,0-0.5C-5476.7-1150-5476.1-1150.7-5475.5-1151.5z"></path> <g> <rect x="-6212.9" y="529.3" class="st5" width="104.2" height="22.6"></rect> <text transform="matrix(1 0 0 1 -6202.481 544.8179)" class="st6" style="font-family:'ArialMT'; font-size:12px; letter-spacing:3;">EXPLORE</text> <polyline class="st7" points="-6122.8,536.4 -6119.3,540.6 -6122.8,544.8 "></polyline> </g> <g> <rect x="-6020.2" y="1792" class="st6" width="184.9" height="47.9"></rect> <path class="st8" d="M-5835.8,1792.5v46.9h-183.9v-46.9H-5835.8 M-5834.8,1791.5h-185.9v48.9h185.9V1791.5L-5834.8,1791.5z"></path> </g> <g> <rect x="-6020.7" y="1810.4" class="st4" width="186" height="29.6"></rect> <text transform="matrix(1 0 0 1 -5986.8726 1819.2355)" class="st8" style="font-family:'ArialMT'; font-size:12px; letter-spacing:3;">GET IN TOUCH</text> </g> <rect x="-6693.7" y="2072.7" class="st3" width="297.5" height="298"></rect> <rect x="-6671.4" y="2391" class="st4" width="252.9" height="41.3"></rect> <text transform="matrix(1 0 0 1 -6671.3755 2402.8169)" style="fill:#B2B2B5; font-family:'ArialMT'; font-size:16px;">Consectetur Sollicitudin </text> <text transform="matrix(1 0 0 1 -6671.3755 2421.8169)" style="fill:#B2B2B5; font-family:'ArialMT'; font-size:16px;">Tellus Ornare Cras</text> <g> <rect x="-6070.1" y="2865.4" class="st9" width="117.7" height="22.6"></rect> <text transform="matrix(1 0 0 1 -6059.6689 2880.9302)" class="st8" style="font-family:'ArialMT'; font-size:12px; letter-spacing:3;">VIEW MORE</text> </g> <g> <rect x="-5450.3" y="3087.2" class="st9" width="35.7" height="35.7"></rect> <polyline class="st10" points="-5434.5,3098.4 -5429,3105.1 -5434.5,3111.7 "></polyline> </g> <path class="st6" d="M-5537.6,3562.3h-3.1c-0.4,0-0.8,0.5-0.8,1.1v2.2h3.8v3.1h-3.8v9.4h-3.6v-9.4h-3.3v-3.1h3.3v-1.9 c0-2.7,1.8-4.8,4.4-4.8h3.1V3562.3z"></path> </g> <g id="Layer_2_1_" class="st11"> </g> <g id="Layer_3" class="st11"> </g> </svg> 